PathFileType	4	(X/Y/Z)	pose_F01_0-96.trc
DataRate	CameraRate	NumFrames	NumMarkers	Units	OrigDataRate	OrigDataStartFrame	OrigNumFrames
30	30	11	21	m	30	36	96
Frame#	Time	CHip			RHip			RKnee			RAnkle			RBigToe			RSmallToe			RHeel			LHip			LKnee			LAnkle			LBigToe			LSmallToe			LHeel			Neck			Nose			RShoulder			RElbow			RWrist			LShoulder			LElbow			LWrist			
		X1	Y1	Z1	X2	Y2	Z2	X3	Y3	Z3	X4	Y4	Z4	X5	Y5	Z5	X6	Y6	Z6	X7	Y7	Z7	X8	Y8	Z8	X9	Y9	Z9	X10	Y10	Z10	X11	Y11	Z11	X12	Y12	Z12	X13	Y13	Z13	X14	Y14	Z14	X15	Y15	Z15	X16	Y16	Z16	X17	Y17	Z17	X18	Y18	Z18	X19	Y19	Z19	X20	Y20	Z20	X21	Y21	Z21	
36	1.2	-0.2335018689755803	1.8686734921852801	-0.49629721731704096	-0.24717518134096042	1.8640349903425386	-0.42728683537312767	-0.26990949340973136	1.7114880428052828	-0.4101071277795897	-0.2823575956938863	1.553495916875062	-0.37867165426854227	-0.24079853858474548	1.5146736633396218	-0.33906165623257317	-0.255620687344161	1.5175247836659147	-0.31726802042214125	-0.2528342457267648	1.5681100209797034	-0.39945258569334985	-0.22365437787792702	1.8714441892126938	-0.5550826052785617	-0.23413628914812282	1.7135862526424928	-0.5701873681569235													-0.24635450058221064	2.049969348795597	-0.5275922297932824	-0.21354120348595407	2.1196188177155078	-0.5102706333916003	-0.26152961446229184	2.0485974029761884	-0.4415213812616098	-0.2720962197082527	1.9519045203403156	-0.40240715995848825	-0.2510228795958971	1.8698124632980444	-0.37434029838539923	-0.23083012979503845	2.0512333136625456	-0.6108105547259611	-1.4606019247762627	1.871183918942788	0.669589590856708	-0.21578284763985822	1.8748332580172833	-0.618134826911576
37	1.2333333333333334	-0.23208236217299563	1.8725380425378948	-0.502280445400298	-0.24765455196452232	1.8700244597778002	-0.4315066575927992	-0.265630373894742	1.7111462355392826	-0.41489203854963114	-0.2823575956938863	1.553495916875062	-0.37867165426854227	-0.24265962697134247	1.5163573193026438	-0.33745378626384587	-0.257340063146051	1.518765260051537	-0.3156701467040506	-0.2528342457267648	1.5681100209797034	-0.39945258569334985	-0.2238962990360846	1.8756789412747685	-0.5587385196520815	-0.2319455907444502	1.7130961571677232	-0.5831771737326308													-0.24818041860741652	2.0504753648025553	-0.5340063658087059	-0.21458066181066243	2.1184801177072305	-0.5128833585871749	-0.2633602491317806	2.0515719843359235	-0.44841278097258247	-0.2724418423774448	1.957865558831412	-0.4121918950531589	-0.2530782688751149	1.874970642969135	-0.3818593492924153	-0.2314957212868105	2.051886150443923	-0.6221359278490827	-1.4531327855242744	1.8719408203950845	0.6568684165604242	-0.21808878536000312	1.8715012855144544	-0.623974786850949
38	1.2666666666666666	-0.23432906035003412	1.8682527142788763	-0.5082245741378988	-0.24730923390109272	1.864604830437009	-0.43620561921429596	-0.2632498464896321	1.7084283948449805	-0.41738238340394557	-0.2823575956938863	1.553495916875062	-0.37867165426854227	-0.24113585909310295	1.5142865114419042	-0.3478894397256551	-0.2569970708389253	1.518694631094113	-0.3204670727466352	-0.2528342457267648	1.5681100209797034	-0.39945258569334985	-0.2243541067643779	1.869954231102898	-0.5666460968488742	-0.22975489234077762	1.712606061692954	-0.596166979308338													-0.2500418134130968	2.0508668863115798	-0.5485702490566411	-0.21753127930602076	2.1152242603600975	-0.521904709852454	-0.26567403519134025	2.050830914475785	-0.46335644065859966	-0.2661018405548202	1.9536765001490257	-0.42352843575246235	-0.2499820662449412	1.8708680373604727	-0.3856783829509778	-0.2341361771722681	2.049689488249935	-0.6312423631029704	-1.4140052514164307	1.8705747391186889	0.5975106657000261	-0.21932681690273342	1.8727906174007956	-0.6307263946685964
39	1.3	-0.23261914133113076	1.8683172760593598	-0.5194362012359485	-0.24466970265283192	1.8655844354379265	-0.46172264893861475	-0.2635354662391558	1.7092838044743925	-0.4260740556607244	-0.2823575956938863	1.553495916875062	-0.37867165426854227	-0.24208526824501714	1.5169500794050352	-0.343046761147688	-0.2587619975796565	1.5204149027391685	-0.3189430626024042	-0.2528342457267648	1.5681100209797034	-0.39945258569334985	-0.22095361280112089	1.8694396179860457	-0.5834442087556212	-0.227564193937105	1.7121159662181844	-0.6091567848840452													-0.25094964319733004	2.051166262400626	-0.5603170922825461	-0.21858761692483117	2.113485350168292	-0.5337353953433148	-0.2650684321523857	2.0491729772038405	-0.477354769272967	-0.26939771440585675	1.952561021616076	-0.44171274112297687	-0.2530673908589051	1.869160526052361	-0.3953523060591819	-0.23279253599491334	2.0497511189654274	-0.6449634072952526	-1.3788838041305662	1.8661265597082906	0.5427855027345799	-0.20888460875557854	1.858492466123931	-0.641536959468743
40	1.3333333333333333	-0.23221983257865675	1.87021885745894	-0.5371034547562746	-0.24174496665638293	1.866991515278508	-0.4697219140077855	-0.25939018110209894	1.7112701151880607	-0.43104075999316654	-0.2823575956938863	1.553495916875062	-0.37867165426854227	-0.24389217487686993	1.5166766990078264	-0.34098057074524635	-0.2580642722015832	1.519148547355568	-0.3197032046063219	-0.2528342457267648	1.5681100209797034	-0.39945258569334985	-0.21637844601318926	1.8729806012067425	-0.6054132836132464	-0.2253734955334324	1.7116258707434149	-0.6221465904597525													-0.24558523444343855	2.0494623098761773	-0.5863835764024834	-0.22327289192525882	2.1116459624297654	-0.5487792538197045	-0.2613392434071339	2.0493194920429203	-0.5069597066117545	-0.2701799182417828	1.9607138367934873	-0.4545604356607499	-0.24734369527231037	1.8727384811215266	-0.4200606998746249	-0.23326438840776798	2.047522627746519	-0.6649144929733378	-1.3342132128112207	1.8689020494192574	0.4741620844487448	-0.20800519600916775	1.8581704018821934	-0.6669076173769412
41	1.3666666666666667	-0.22779984597283828	1.8721710849876343	-0.5593838467336654	-0.24271374099939783	1.8699232244087993	-0.49096369342206087	-0.25574622835066774	1.7138327157370228	-0.43546687638290144	-0.2823575956938863	1.553495916875062	-0.37867165426854227	-0.24180072935226318	1.5137710411086096	-0.3423674250333273	-0.25716988959481996	1.5180951900424087	-0.3158535232985483	-0.2528342457267648	1.5681100209797034	-0.39945258569334985	-0.21771659411338534	1.8749615879763548	-0.6209053830802359	-0.22832118723562225	1.7123656265557279	-0.63213182856311													-0.24519912299138602	2.051834129885902	-0.6037233866416626	-0.22225187505260452	2.110948861186797	-0.5626723534174206	-0.2623227110380388	2.050080250000953	-0.5187946748498281	-0.27073501082464957	1.9567756663454057	-0.4800223923338075	-0.24929981589028663	1.8769643338221786	-0.4362162175573426	-0.22818474137452882	2.0492674298056044	-0.6867309567342426	-0.22125783409131802	1.9499651993584695	-0.6996178581345545	-0.20733955673052976	1.8673532845125196	-0.6764564666779999
42	1.4	-0.2288066316280157	1.8757808020544222	-0.571943704749604	-0.23782498934401988	1.872827090074377	-0.510208338437755	-0.24899919072455343	1.7156506458605214	-0.44753718584740876	-0.275709415474987	1.5580971030936979	-0.38223523282786537	-0.23978098744843074	1.513641152504974	-0.34459772046555814	-0.25319992052927337	1.5175562775549816	-0.31995384305732716	-0.2528342457267648	1.5681100209797034	-0.39945258569334985	-0.21876306834365822	1.8773648144925597	-0.6332327370659715	-0.22991811876684423	1.7177863142483527	-0.6352027276375086													-0.24783704187683644	2.052025434155897	-0.6219491251365054	-0.21998590549247962	2.110474861456529	-0.5816328798294556	-0.26337263406443445	2.0516445093392606	-0.5392839505892943	-0.26463152150710606	1.9613085282721754	-0.49577332049148926	-0.24730573449436166	1.8789570924574097	-0.4562927144487697	-0.2284382327773664	2.0474857035623293	-0.7064532890564865	-0.21941833984742742	1.9538466422412557	-0.7135063991741025	-0.20371693241138367	1.8717712783779523	-0.7049431737183453
43	1.4333333333333333	-0.22878525277276832	1.876063618261409	-0.5839530162655884	-0.23518796560777827	1.8756874631497407	-0.5214671291379078	-0.24581495333483347	1.7175471547817653	-0.4556774902488609	-0.27547488395406894	1.5629341384636621	-0.3828395631930562	-0.23889720560264785	1.513179405781557	-0.3500838693714236	-0.2534710793017017	1.5191069581374532	-0.31981291484153757	-0.2528342457267648	1.5681100209797034	-0.39945258569334985	-0.21210863873097943	1.878879899604599	-0.6520022191422379	-0.23209621313033524	1.7196519556797905	-0.6458517521421093													-0.2431775129930919	2.0527606238011447	-0.6429972743459527	-0.21956741679932737	2.1110920673573808	-0.5982985504520881	-0.2582055001609218	2.0526256580515096	-0.5572547118759782	-1.6406043304615907	1.875722325602578	0.9670169539376673	-0.24404348618082192	1.88519574197507	-0.4731012325979964	-0.2254039243385766	2.049232815993183	-0.7258136028393176	-0.21711597845846392	1.9544775023778265	-0.7360850969317996	-0.200806075558672	1.8763775974093542	-0.7159235218661063
44	1.4666666666666666	-0.22428549806210915	1.8775644038844583	-0.5972598056406063	-0.23587550832822696	1.8777881266586283	-0.5336766233006605	-0.2456986268218554	1.7213499133480163	-0.4608298944971316	-0.27336804493584843	1.5648240311043835	-0.38521818176689876	-0.2404673025210614	1.5152353801845193	-0.3532640856488267	-0.254297086937787	1.5198498568595784	-0.3237348135270737	-0.2528342457267648	1.5681100209797034	-0.39945258569334985	-0.21242359168396566	1.88123330444363	-0.6640129441544543	-0.235264854934165	1.7130552633423073	-0.6544667360113883													-0.24170832989574695	2.054776370867974	-0.6568988756267105	-0.2222783232052836	2.1128049322135225	-0.6081486360797927	-0.259112576291509	2.0544039506196663	-0.569218388888058	-1.6320814229791056	1.8766717090188754	0.9525730165887469	-0.24133714354438127	1.8821470310736923	-0.48058020438132837	-0.22349001611966487	2.050883234353906	-0.7392386464888853	-0.2208489458251884	1.956442550107962	-0.7401653123186505	-0.20031694806724612	1.8756765701917943	-0.7245828659095706
45	1.5	-0.22636730650132206	1.8811444611358747	-0.6129598351779157	-0.24033256613114634	1.879386028739333	-0.5471508413791644	-0.24672204359657704	1.724313538726613	-0.4647394950701651	-0.27199312382609414	1.5695302660547652	-0.38293086158018846	-0.24071089559216347	1.5145009609275373	-0.34867856534815705	-0.2556532067110278	1.522393438936572	-0.32282888986604846	-0.2528342457267648	1.5681100209797034	-0.39945258569334985	-0.2133911662788385	1.8828849960018157	-0.6760176440044195	-0.23627864779487742	1.7166260908524718	-0.6580995583965382													-0.2434671993915562	2.0552010332084696	-0.6633742720596145	-0.22306660748266954	2.1120226720624675	-0.6196479828112968	-0.26200712951138483	2.053771240540747	-0.5787866133903895	-1.5907416408094723	1.8782525867381468	0.8769715616154402	-0.24539926514048196	1.882162321051442	-0.499801268384796	-0.223944578582792	2.0515684583959124	-0.7509510069055586	-0.2174934445597587	1.9579658206022075	-0.7590611286227187	-0.20121696164256433	1.8800100887295281	-0.7397876171920176
46	1.5333333333333334	-0.22389971128808323	1.8796550377252927	-0.623689844881979	-0.24009538247557827	1.8802036181061041	-0.5559931393586904	-0.24691177848612045	1.7285006001375722	-0.47401334664924183	-0.2698753770942289	1.5715345313751803	-0.3851748552442265	-0.24032619325959004	1.5166373960959005	-0.35391322119626906	-0.254661760180325	1.5221189381169233	-0.32360160019229633	-0.2528342457267648	1.5681100209797034	-0.39945258569334985	-0.21483789743729798	1.8834631151883103	-0.6825513974106816	-0.2362463950536094	1.718366986438951	-0.6665498100166278													-0.24420524277573735	2.0544563796796163	-0.674631496486188	-0.22359064805583473	2.1162799377768824	-0.6319578325116221	-0.26196696105957773	2.0554214051913653	-0.5874922693233309	-1.568601263989918	1.8761724042910624	0.8403728122765493	-0.2453606296474741	1.8852015352068883	-0.5031243506629071	-0.2264064186576967	2.0520289273017833	-0.7600241190230469	-0.21474764540774566	1.9581373356426128	-0.7698449532557832	-0.20285239371814606	1.8770785561937977	-0.7457887904975843
